# xmcd
#
# Track frame offsets:
#	150
#	22787
#	48892
#	79370
#	111445
#	129095
#	156737
#	186375
#	214422
#
# Disc length: 3055 seconds
# Revision: 7
# Processed by: cddbd v1.5.2PL0 Copyright (c) Steve Scherf et al.
# Submitted via: dBpowerAMP V12.0
#
DISCID=7c0bed09
DTITLE=Shades of Blue - Shades of Blue
DYEAR=1989
DGENRE=Blues
TTITLE0=I'm Ready
TTITLE1=Hoochie Coochie Man
TTITLE2=One Way Out
TTITLE3=My Own Fault
TTITLE4=Paint the City Blue
TTITLE5=Crosscut Saw
TTITLE6=The Things You Do
TTITLE7=Who's Been Talking
TTITLE8=Baby Please Don't Go
EXTD=
EXTT0=
EXTT1=
EXTT2=
EXTT3=
EXTT4=
EXTT5=
EXTT6=
EXTT7=
EXTT8=
PLAYORDER=
